<?xml version="1.0" encoding="UTF-8"?>
<!DOCTYPE svg PUBLIC "-//W3C//DTD SVG 1.1//EN" "http://www.w3.org/Graphics/SVG/1.1/DTD/svg11.dtd">
<svg version="1.2" width="500mm" height="500mm" viewBox="0 0 50000 50000" preserveAspectRatio="xMidYMid" fill-rule="evenodd" stroke-width="28.222" stroke-linejoin="round" xmlns="http://www.w3.org/2000/svg" xmlns:ooo="http://xml.openoffice.org/svg/export" xmlns:xlink="http://www.w3.org/1999/xlink" xmlns:presentation="http://sun.com/xmlns/staroffice/presentation" xmlns:smil="http://www.w3.org/2001/SMIL20/" xmlns:anim="urn:oasis:names:tc:opendocument:xmlns:animation:1.0" xml:space="preserve">
 <defs class="ClipPathGroup">
  <clipPath id="presentation_clip_path" clipPathUnits="userSpaceOnUse">
   <rect x="0" y="0" width="50000" height="50000"/>
  </clipPath>
  <clipPath id="presentation_clip_path_shrink" clipPathUnits="userSpaceOnUse">
   <rect x="50" y="50" width="49900" height="49900"/>
  </clipPath>
 </defs>
 <defs class="TextShapeIndex">
  <g ooo:slide="id1" ooo:id-list="id3"/>
 </defs>
 <defs class="EmbeddedBulletChars">
  <g id="bullet-char-template-57356" transform="scale(0.00048828125,-0.00048828125)">
   <path d="M 580,1141 L 1163,571 580,0 -4,571 580,1141 Z"/>
  </g>
  <g id="bullet-char-template-57354" transform="scale(0.00048828125,-0.00048828125)">
   <path d="M 8,1128 L 1137,1128 1137,0 8,0 8,1128 Z"/>
  </g>
  <g id="bullet-char-template-10146" transform="scale(0.00048828125,-0.00048828125)">
   <path d="M 174,0 L 602,739 174,1481 1456,739 174,0 Z M 1358,739 L 309,1346 659,739 1358,739 Z"/>
  </g>
  <g id="bullet-char-template-10132" transform="scale(0.00048828125,-0.00048828125)">
   <path d="M 2015,739 L 1276,0 717,0 1260,543 174,543 174,936 1260,936 717,1481 1274,1481 2015,739 Z"/>
  </g>
  <g id="bullet-char-template-10007" transform="scale(0.00048828125,-0.00048828125)">
   <path d="M 0,-2 C -7,14 -16,27 -25,37 L 356,567 C 262,823 215,952 215,954 215,979 228,992 255,992 264,992 276,990 289,987 310,991 331,999 354,1012 L 381,999 492,748 772,1049 836,1024 860,1049 C 881,1039 901,1025 922,1006 886,937 835,863 770,784 769,783 710,716 594,584 L 774,223 C 774,196 753,168 711,139 L 727,119 C 717,90 699,76 672,76 641,76 570,178 457,381 L 164,-76 C 142,-110 111,-127 72,-127 30,-127 9,-110 8,-76 1,-67 -2,-52 -2,-32 -2,-23 -1,-13 0,-2 Z"/>
  </g>
  <g id="bullet-char-template-10004" transform="scale(0.00048828125,-0.00048828125)">
   <path d="M 285,-33 C 182,-33 111,30 74,156 52,228 41,333 41,471 41,549 55,616 82,672 116,743 169,778 240,778 293,778 328,747 346,684 L 369,508 C 377,444 397,411 428,410 L 1163,1116 C 1174,1127 1196,1133 1229,1133 1271,1133 1292,1118 1292,1087 L 1292,965 C 1292,929 1282,901 1262,881 L 442,47 C 390,-6 338,-33 285,-33 Z"/>
  </g>
  <g id="bullet-char-template-9679" transform="scale(0.00048828125,-0.00048828125)">
   <path d="M 813,0 C 632,0 489,54 383,161 276,268 223,411 223,592 223,773 276,916 383,1023 489,1130 632,1184 813,1184 992,1184 1136,1130 1245,1023 1353,916 1407,772 1407,592 1407,412 1353,268 1245,161 1136,54 992,0 813,0 Z"/>
  </g>
  <g id="bullet-char-template-8226" transform="scale(0.00048828125,-0.00048828125)">
   <path d="M 346,457 C 273,457 209,483 155,535 101,586 74,649 74,723 74,796 101,859 155,911 209,963 273,989 346,989 419,989 480,963 531,910 582,859 608,796 608,723 608,648 583,586 532,535 482,483 420,457 346,457 Z"/>
  </g>
  <g id="bullet-char-template-8211" transform="scale(0.00048828125,-0.00048828125)">
   <path d="M -4,459 L 1135,459 1135,606 -4,606 -4,459 Z"/>
  </g>
  <g id="bullet-char-template-61548" transform="scale(0.00048828125,-0.00048828125)">
   <path d="M 173,740 C 173,903 231,1043 346,1159 462,1274 601,1332 765,1332 928,1332 1067,1274 1183,1159 1299,1043 1357,903 1357,740 1357,577 1299,437 1183,322 1067,206 928,148 765,148 601,148 462,206 346,322 231,437 173,577 173,740 Z"/>
  </g>
 </defs>
 <defs class="TextEmbeddedBitmaps"/>
 <g>
  <g id="id2" class="Master_Slide">
   <g id="bg-id2" class="Background"/>
   <g id="bo-id2" class="BackgroundObjects"/>
  </g>
 </g>
 <g class="SlideGroup">
  <g>
   <g id="container-id1">
    <g id="id1" class="Slide" clip-path="url(#presentation_clip_path)">
     <g class="Page">
      <g class="com.sun.star.drawing.PolyPolygonShape">
       <g id="id3">
        <rect class="BoundingBox" stroke="none" fill="none" x="1" y="1" width="50002" height="50002"/>
        <path fill="rgb(0,160,255)" stroke="none" d="M 12001,41001 L 13001,41001 13001,42001 14001,42001 14001,44001 12001,44001 12001,45001 9001,45001 9001,46001 8001,46001 8001,49001 8001,50001 8001,50002 1,50002 25001,1 50002,50002 42001,50002 42001,50001 42001,49001 42001,46001 41001,46001 41001,45001 38001,45001 38001,44001 36001,44001 36001,42001 37001,42001 37001,41001 38001,41001 38001,35001 37001,35001 37001,34001 31001,34001 31001,35001 30001,35001 30001,41001 31001,41001 31001,42001 32001,42001 32001,44001 30001,44001 30001,45001 27001,45001 27001,46001 26001,46001 26001,49001 26001,50001 26001,50002 24001,50002 24001,50001 24001,49001 24001,46001 23001,46001 23001,45001 20001,45001 20001,44001 18001,44001 18001,42001 19001,42001 19001,41001 20001,41001 20001,35001 19001,35001 19001,34001 13001,34001 13001,35001 12001,35001 12001,41001 Z M 23549,20007 L 23551,20056 23557,20103 23568,20147 23575,20169 23584,20190 23591,20211 23603,20232 23626,20272 23654,20309 23686,20345 23723,20379 23759,20407 23780,20421 23799,20431 23820,20442 23840,20452 23863,20459 23885,20468 23907,20473 23929,20478 23976,20484 24026,20487 24075,20484 24123,20478 24166,20468 24189,20461 24210,20452 24230,20442 24251,20433 24270,20421 24291,20409 24327,20381 24364,20348 24397,20312 24424,20274 24438,20255 24448,20234 24459,20213 24469,20193 24478,20172 24485,20150 24495,20104 24501,20057 24504,20007 24501,19957 24495,19910 24490,19888 24485,19864 24478,19843 24469,19821 24459,19800 24448,19779 24438,19760 24424,19741 24397,19703 24364,19667 24327,19635 24291,19606 24270,19595 24251,19582 24230,19573 24210,19564 24189,19556 24166,19549 24123,19538 24075,19532 24026,19530 23976,19532 23929,19538 23885,19549 23863,19556 23840,19564 23820,19573 23799,19584 23780,19595 23759,19607 23723,19635 23686,19667 23654,19703 23626,19741 23614,19760 23603,19779 23591,19800 23584,19821 23575,19843 23568,19865 23557,19910 23551,19957 23549,20007 Z M 25520,20007 L 25523,20056 25529,20103 25540,20147 25547,20169 25555,20190 25565,20211 25574,20232 25598,20272 25628,20309 25659,20345 25695,20379 25733,20407 25752,20421 25772,20431 25792,20442 25813,20452 25834,20459 25856,20468 25879,20473 25902,20478 25950,20484 25998,20487 26047,20484 26094,20478 26116,20473 26139,20468 26160,20459 26182,20452 26203,20442 26224,20431 26244,20421 26263,20407 26302,20379 26338,20345 26371,20309 26401,20272 26424,20232 26435,20211 26445,20190 26452,20169 26461,20147 26466,20125 26471,20103 26477,20056 26480,20007 26477,19957 26471,19910 26466,19888 26461,19864 26452,19843 26445,19821 26435,19800 26424,19779 26413,19760 26401,19741 26371,19703 26338,19667 26302,19635 26263,19606 26224,19582 26203,19573 26182,19564 26160,19556 26139,19549 26094,19538 26047,19532 25998,19530 25950,19532 25902,19538 25858,19549 25836,19556 25815,19564 25794,19573 25773,19582 25754,19595 25734,19606 25697,19635 25661,19667 25628,19703 25600,19741 25587,19760 25576,19779 25565,19800 25555,19821 25547,19843 25540,19864 25534,19888 25529,19910 25523,19957 25520,20007 Z M 21939,20945 L 21952,21255 21994,21555 22025,21701 22065,21842 22110,21982 22162,22120 22221,22253 22288,22384 22361,22511 22443,22636 22624,22878 22835,23107 23066,23316 23307,23498 23432,23577 23560,23650 23692,23717 23825,23777 23962,23830 24102,23874 24244,23913 24390,23944 24690,23986 25003,24000 25315,23986 25614,23944 25761,23913 25903,23874 26044,23830 26180,23777 26314,23717 26445,23650 26573,23577 26698,23498 26939,23316 27168,23107 27378,22878 27560,22636 27639,22511 27713,22384 27779,22253 27839,22120 27892,21982 27937,21842 27975,21701 28007,21555 28049,21255 28063,20945 28049,20632 28007,20331 27937,20043 27892,19903 27839,19765 27779,19630 27713,19500 27639,19371 27560,19246 27378,19004 27168,18773 26939,18562 26698,18381 26573,18300 26445,18227 26314,18160 26180,18100 26044,18048 25903,18002 25761,17963 25614,17931 25315,17889 25003,17876 24690,17889 24390,17931 24244,17963 24102,18002 23962,18048 23825,18100 23692,18160 23560,18227 23432,18300 23307,18381 23066,18562 22835,18773 22624,19004 22443,19246 22361,19371 22288,19500 22221,19630 22162,19765 22110,19903 22065,20043 22025,20186 21994,20331 21952,20632 21939,20945 Z M 22399,20945 L 22412,20680 22446,20423 22474,20300 22506,20177 22545,20059 22590,19943 22640,19828 22696,19717 22758,19607 22828,19502 22982,19295 23161,19099 23357,18921 23563,18765 23668,18697 23778,18635 23889,18578 24003,18526 24119,18482 24237,18443 24360,18412 24483,18384 24738,18349 25003,18336 25268,18349 25523,18384 25647,18412 25768,18443 25887,18482 26002,18526 26116,18578 26227,18635 26337,18697 26442,18765 26648,18921 26842,19099 27020,19295 27174,19502 27242,19607 27305,19717 27362,19828 27412,19943 27455,20059 27495,20177 27554,20423 27589,20680 27602,20945 27589,21208 27554,21464 27528,21587 27495,21708 27455,21826 27412,21942 27362,22056 27305,22167 27242,22276 27174,22381 27020,22586 26842,22780 26648,22958 26442,23112 26337,23180 26227,23242 26116,23299 26002,23349 25887,23394 25768,23432 25647,23466 25523,23493 25268,23527 25003,23539 24738,23527 24483,23493 24360,23466 24237,23432 24119,23394 24003,23349 23889,23299 23778,23242 23668,23180 23563,23112 23357,22958 23161,22780 22982,22586 22828,22381 22758,22276 22696,22167 22640,22056 22590,21942 22545,21826 22506,21708 22474,21587 22446,21464 22412,21208 22399,20945 Z M 23205,21902 L 23269,21996 23340,22089 23416,22179 23500,22267 23660,22411 23828,22538 23914,22593 24003,22643 24095,22689 24187,22731 24282,22766 24379,22799 24579,22846 24786,22875 25003,22885 25218,22875 25426,22846 25626,22799 25723,22766 25817,22731 25910,22689 26001,22643 26090,22593 26177,22538 26343,22411 26503,22267 26586,22179 26663,22089 26734,21996 26801,21902 26407,21657 26356,21730 26300,21802 26239,21871 26175,21940 26051,22053 25920,22152 25852,22195 25784,22235 25712,22271 25640,22304 25566,22331 25490,22356 25413,22377 25334,22394 25172,22417 25003,22424 24833,22417 24670,22394 24592,22377 24514,22356 24438,22331 24364,22304 24291,22271 24221,22235 24151,22195 24083,22152 23953,22053 23828,21940 23763,21871 23702,21804 23646,21733 23596,21660 23205,21902 Z M 18876,24001 L 18876,17876 25003,17876 31126,17876 31126,24001 31126,24002 26751,24002 23251,24002 18876,24002 18876,24001 Z M 18001,17001 L 18001,17876 18001,24002 18001,24876 18876,24876 23251,24876 23251,25751 26751,25751 26751,24876 31126,24876 32001,24876 32001,24002 32001,17876 32001,17001 31126,17001 18876,17001 18001,17001 Z M 19751,30126 L 18876,30126 18876,29251 18001,29251 18001,30126 18001,31001 18876,31001 19751,31001 20626,31001 21501,31001 22376,31001 23251,31001 24126,31001 25002,31001 25876,31001 26751,31001 27626,31001 28501,31001 29376,31001 30251,31001 32001,31001 32001,30126 32001,29251 31126,29251 31126,28376 31126,27501 30251,27501 30251,28376 29376,28376 29376,29251 30251,29251 30251,30126 29376,30126 29376,29251 28501,29251 28501,30126 27626,30126 27626,29251 26751,29251 26751,30126 25876,30126 25876,29251 25002,29251 25002,30126 24126,30126 24126,29251 23251,29251 23251,30126 22376,30126 22376,29251 21501,29251 21501,30126 20626,30126 20626,29251 19751,29251 19751,30126 Z M 18876,29251 L 19751,29251 19751,28376 20626,28376 20626,27501 21501,27501 21501,28376 22376,28376 22376,27501 23251,27501 23251,28376 24126,28376 24126,27501 25002,27501 25002,28376 25876,28376 25876,27501 26751,27501 26751,28376 27626,28376 27626,27501 28501,27501 28501,28376 29376,28376 29376,27501 30251,27501 30251,26626 29376,26626 28501,26626 27626,26626 26751,26626 25876,26626 25002,26626 24126,26626 23251,26626 22376,26626 21501,26626 20626,26626 19751,26626 19751,27501 18876,27501 18876,28376 18876,29251 Z M 20626,29251 L 21501,29251 21501,28376 20626,28376 20626,29251 Z M 22376,29251 L 23251,29251 23251,28376 22376,28376 22376,29251 Z M 24126,29251 L 25002,29251 25002,28376 24126,28376 24126,29251 Z M 25876,29251 L 26751,29251 26751,28376 25876,28376 25876,29251 Z M 27626,29251 L 28501,29251 28501,28376 27626,28376 27626,29251 Z"/>
       </g>
      </g>
     </g>
    </g>
   </g>
  </g>
 </g>
</svg>