<?xml version="1.0" encoding="UTF-8"?>
<!DOCTYPE svg PUBLIC "-//W3C//DTD SVG 1.1//EN" "http://www.w3.org/Graphics/SVG/1.1/DTD/svg11.dtd">
<svg version="1.2" width="500mm" height="500mm" viewBox="0 0 50000 50000" preserveAspectRatio="xMidYMid" fill-rule="evenodd" stroke-width="28.222" stroke-linejoin="round" xmlns="http://www.w3.org/2000/svg" xmlns:ooo="http://xml.openoffice.org/svg/export" xmlns:xlink="http://www.w3.org/1999/xlink" xmlns:presentation="http://sun.com/xmlns/staroffice/presentation" xmlns:smil="http://www.w3.org/2001/SMIL20/" xmlns:anim="urn:oasis:names:tc:opendocument:xmlns:animation:1.0" xml:space="preserve">
 <defs class="ClipPathGroup">
  <clipPath id="presentation_clip_path" clipPathUnits="userSpaceOnUse">
   <rect x="0" y="0" width="50000" height="50000"/>
  </clipPath>
  <clipPath id="presentation_clip_path_shrink" clipPathUnits="userSpaceOnUse">
   <rect x="50" y="50" width="49900" height="49900"/>
  </clipPath>
 </defs>
 <defs class="TextShapeIndex">
  <g ooo:slide="id1" ooo:id-list="id3"/>
 </defs>
 <defs class="EmbeddedBulletChars">
  <g id="bullet-char-template-57356" transform="scale(0.00048828125,-0.00048828125)">
   <path d="M 580,1141 L 1163,571 580,0 -4,571 580,1141 Z"/>
  </g>
  <g id="bullet-char-template-57354" transform="scale(0.00048828125,-0.00048828125)">
   <path d="M 8,1128 L 1137,1128 1137,0 8,0 8,1128 Z"/>
  </g>
  <g id="bullet-char-template-10146" transform="scale(0.00048828125,-0.00048828125)">
   <path d="M 174,0 L 602,739 174,1481 1456,739 174,0 Z M 1358,739 L 309,1346 659,739 1358,739 Z"/>
  </g>
  <g id="bullet-char-template-10132" transform="scale(0.00048828125,-0.00048828125)">
   <path d="M 2015,739 L 1276,0 717,0 1260,543 174,543 174,936 1260,936 717,1481 1274,1481 2015,739 Z"/>
  </g>
  <g id="bullet-char-template-10007" transform="scale(0.00048828125,-0.00048828125)">
   <path d="M 0,-2 C -7,14 -16,27 -25,37 L 356,567 C 262,823 215,952 215,954 215,979 228,992 255,992 264,992 276,990 289,987 310,991 331,999 354,1012 L 381,999 492,748 772,1049 836,1024 860,1049 C 881,1039 901,1025 922,1006 886,937 835,863 770,784 769,783 710,716 594,584 L 774,223 C 774,196 753,168 711,139 L 727,119 C 717,90 699,76 672,76 641,76 570,178 457,381 L 164,-76 C 142,-110 111,-127 72,-127 30,-127 9,-110 8,-76 1,-67 -2,-52 -2,-32 -2,-23 -1,-13 0,-2 Z"/>
  </g>
  <g id="bullet-char-template-10004" transform="scale(0.00048828125,-0.00048828125)">
   <path d="M 285,-33 C 182,-33 111,30 74,156 52,228 41,333 41,471 41,549 55,616 82,672 116,743 169,778 240,778 293,778 328,747 346,684 L 369,508 C 377,444 397,411 428,410 L 1163,1116 C 1174,1127 1196,1133 1229,1133 1271,1133 1292,1118 1292,1087 L 1292,965 C 1292,929 1282,901 1262,881 L 442,47 C 390,-6 338,-33 285,-33 Z"/>
  </g>
  <g id="bullet-char-template-9679" transform="scale(0.00048828125,-0.00048828125)">
   <path d="M 813,0 C 632,0 489,54 383,161 276,268 223,411 223,592 223,773 276,916 383,1023 489,1130 632,1184 813,1184 992,1184 1136,1130 1245,1023 1353,916 1407,772 1407,592 1407,412 1353,268 1245,161 1136,54 992,0 813,0 Z"/>
  </g>
  <g id="bullet-char-template-8226" transform="scale(0.00048828125,-0.00048828125)">
   <path d="M 346,457 C 273,457 209,483 155,535 101,586 74,649 74,723 74,796 101,859 155,911 209,963 273,989 346,989 419,989 480,963 531,910 582,859 608,796 608,723 608,648 583,586 532,535 482,483 420,457 346,457 Z"/>
  </g>
  <g id="bullet-char-template-8211" transform="scale(0.00048828125,-0.00048828125)">
   <path d="M -4,459 L 1135,459 1135,606 -4,606 -4,459 Z"/>
  </g>
  <g id="bullet-char-template-61548" transform="scale(0.00048828125,-0.00048828125)">
   <path d="M 173,740 C 173,903 231,1043 346,1159 462,1274 601,1332 765,1332 928,1332 1067,1274 1183,1159 1299,1043 1357,903 1357,740 1357,577 1299,437 1183,322 1067,206 928,148 765,148 601,148 462,206 346,322 231,437 173,577 173,740 Z"/>
  </g>
 </defs>
 <defs class="TextEmbeddedBitmaps"/>
 <g>
  <g id="id2" class="Master_Slide">
   <g id="bg-id2" class="Background"/>
   <g id="bo-id2" class="BackgroundObjects"/>
  </g>
 </g>
 <g class="SlideGroup">
  <g>
   <g id="container-id1">
    <g id="id1" class="Slide" clip-path="url(#presentation_clip_path)">
     <g class="Page">
      <g class="com.sun.star.drawing.PolyPolygonShape">
       <g id="id3">
        <rect class="BoundingBox" stroke="none" fill="none" x="0" y="0" width="50001" height="50001"/>
        <path fill="rgb(0,0,0)" stroke="none" d="M 12000,41000 L 12000,35000 13000,35000 13000,34000 19000,34000 19000,35000 20000,35000 20000,41000 19000,41000 19000,42000 18000,42000 18000,44000 20000,44000 20000,45000 23000,45000 23000,46000 24000,46000 24000,49000 24000,50000 8000,50000 8000,49000 8000,46000 9000,46000 9000,45000 12000,45000 12000,44000 14000,44000 14000,42000 13000,42000 13000,41000 12000,41000 Z M 26000,49000 L 26000,46000 27000,46000 27000,45000 30000,45000 30000,44000 32000,44000 32000,42000 31000,42000 31000,41000 30000,41000 30000,35000 31000,35000 31000,34000 37000,34000 37000,35000 38000,35000 38000,41000 37000,41000 37000,42000 36000,42000 36000,44000 38000,44000 38000,45000 41000,45000 41000,46000 42000,46000 42000,49000 42000,50000 26000,50000 26000,49000 Z M 25000,0 L 0,50000 0,50000 0,0 25000,0 50000,0 50000,49999 25000,0 Z M 23548,20006 L 23550,19956 23556,19909 23567,19864 23574,19842 23583,19820 23590,19799 23602,19778 23613,19759 23625,19740 23653,19702 23685,19666 23722,19634 23758,19606 23779,19594 23798,19583 23819,19572 23839,19563 23862,19555 23884,19548 23928,19537 23975,19531 24025,19529 24074,19531 24122,19537 24165,19548 24188,19555 24209,19563 24229,19572 24250,19581 24269,19594 24290,19605 24326,19634 24363,19666 24396,19702 24423,19740 24437,19759 24447,19778 24458,19799 24468,19820 24477,19842 24484,19863 24489,19887 24494,19909 24500,19956 24503,20006 24500,20056 24494,20103 24484,20149 24477,20171 24468,20192 24458,20212 24447,20233 24437,20254 24423,20273 24396,20311 24363,20347 24326,20380 24290,20408 24269,20420 24250,20432 24229,20441 24209,20451 24188,20460 24165,20467 24122,20477 24074,20483 24025,20486 23975,20483 23928,20477 23906,20472 23884,20467 23862,20458 23839,20451 23819,20441 23798,20430 23779,20420 23758,20406 23722,20378 23685,20344 23653,20308 23625,20271 23602,20231 23590,20210 23583,20189 23574,20168 23567,20146 23556,20102 23550,20055 23548,20006 Z M 25519,20006 L 25522,19956 25528,19909 25533,19887 25539,19863 25546,19842 25554,19820 25564,19799 25575,19778 25586,19759 25599,19740 25627,19702 25660,19666 25696,19634 25733,19605 25753,19594 25772,19581 25793,19572 25814,19563 25835,19555 25857,19548 25901,19537 25949,19531 25997,19529 26046,19531 26093,19537 26138,19548 26159,19555 26181,19563 26202,19572 26223,19581 26262,19605 26301,19634 26337,19666 26370,19702 26400,19740 26412,19759 26423,19778 26434,19799 26444,19820 26451,19842 26460,19863 26465,19887 26470,19909 26476,19956 26479,20006 26476,20055 26470,20102 26465,20124 26460,20146 26451,20168 26444,20189 26434,20210 26423,20231 26400,20271 26370,20308 26337,20344 26301,20378 26262,20406 26243,20420 26223,20430 26202,20441 26181,20451 26159,20458 26138,20467 26115,20472 26093,20477 26046,20483 25997,20486 25949,20483 25901,20477 25878,20472 25855,20467 25833,20458 25812,20451 25791,20441 25771,20430 25751,20420 25732,20406 25694,20378 25658,20344 25627,20308 25597,20271 25573,20231 25564,20210 25554,20189 25546,20168 25539,20146 25528,20102 25522,20055 25519,20006 Z M 21938,20944 L 21951,20631 21993,20330 22024,20185 22064,20042 22109,19902 22161,19764 22220,19629 22287,19499 22360,19370 22442,19245 22623,19003 22834,18772 23065,18561 23306,18380 23431,18299 23559,18226 23691,18159 23824,18099 23961,18047 24101,18001 24243,17962 24389,17930 24689,17888 25002,17875 25314,17888 25613,17930 25760,17962 25902,18001 26043,18047 26179,18099 26313,18159 26444,18226 26572,18299 26697,18380 26938,18561 27167,18772 27377,19003 27559,19245 27638,19370 27712,19499 27778,19629 27838,19764 27891,19902 27936,20042 28006,20330 28048,20631 28062,20944 28048,21254 28006,21554 27974,21700 27936,21841 27891,21981 27838,22119 27778,22252 27712,22383 27638,22510 27559,22635 27377,22877 27167,23106 26938,23315 26697,23497 26572,23576 26444,23649 26313,23716 26179,23776 26043,23829 25902,23873 25760,23912 25613,23943 25314,23985 25002,23999 24689,23985 24389,23943 24243,23912 24101,23873 23961,23829 23824,23776 23691,23716 23559,23649 23431,23576 23306,23497 23065,23315 22834,23106 22623,22877 22442,22635 22360,22510 22287,22383 22220,22252 22161,22119 22109,21981 22064,21841 22024,21700 21993,21554 21951,21254 21938,20944 Z M 22398,20944 L 22411,21207 22445,21463 22473,21586 22505,21707 22544,21825 22589,21941 22639,22055 22695,22166 22757,22275 22827,22380 22981,22585 23160,22779 23356,22957 23562,23111 23667,23179 23777,23241 23888,23298 24002,23348 24118,23393 24236,23431 24359,23465 24482,23492 24737,23526 25002,23538 25267,23526 25522,23492 25646,23465 25767,23431 25886,23393 26001,23348 26115,23298 26226,23241 26336,23179 26441,23111 26647,22957 26841,22779 27019,22585 27173,22380 27241,22275 27304,22166 27361,22055 27411,21941 27454,21825 27494,21707 27527,21586 27553,21463 27588,21207 27601,20944 27588,20679 27553,20422 27494,20176 27454,20058 27411,19942 27361,19827 27304,19716 27241,19606 27173,19501 27019,19294 26841,19098 26647,18920 26441,18764 26336,18696 26226,18634 26115,18577 26001,18525 25886,18481 25767,18442 25646,18411 25522,18383 25267,18348 25002,18335 24737,18348 24482,18383 24359,18411 24236,18442 24118,18481 24002,18525 23888,18577 23777,18634 23667,18696 23562,18764 23356,18920 23160,19098 22981,19294 22827,19501 22757,19606 22695,19716 22639,19827 22589,19942 22544,20058 22505,20176 22473,20299 22445,20422 22411,20679 22398,20944 Z M 23204,21901 L 23595,21659 23645,21732 23701,21803 23762,21870 23827,21939 23952,22052 24082,22151 24150,22194 24220,22234 24290,22270 24363,22303 24437,22330 24513,22355 24591,22376 24669,22393 24832,22416 25002,22423 25171,22416 25333,22393 25412,22376 25489,22355 25565,22330 25639,22303 25711,22270 25783,22234 25851,22194 25919,22151 26050,22052 26174,21939 26238,21870 26299,21801 26355,21729 26406,21656 26800,21901 26733,21995 26662,22088 26585,22178 26502,22266 26342,22410 26176,22537 26089,22592 26000,22642 25909,22688 25816,22730 25722,22765 25625,22798 25425,22845 25217,22874 25002,22884 24785,22874 24578,22845 24378,22798 24281,22765 24186,22730 24094,22688 24002,22642 23913,22592 23827,22537 23659,22410 23499,22266 23415,22178 23339,22088 23268,21995 23204,21901 Z M 18875,24000 L 18875,24001 23250,24001 26750,24001 31125,24001 31125,24000 31125,17875 25002,17875 18875,17875 18875,24000 Z M 18000,17000 L 18875,17000 31125,17000 32000,17000 32000,17875 32000,24001 32000,24875 31125,24875 26750,24875 26750,25750 23250,25750 23250,24875 18875,24875 18000,24875 18000,24001 18000,17875 18000,17000 Z M 19750,30125 L 19750,29250 20625,29250 20625,30125 21500,30125 21500,29250 22375,29250 22375,30125 23250,30125 23250,29250 24125,29250 24125,30125 25001,30125 25001,29250 25875,29250 25875,30125 26750,30125 26750,29250 27625,29250 27625,30125 28500,30125 28500,29250 29375,29250 29375,30125 30250,30125 30250,29250 29375,29250 29375,28375 30250,28375 30250,27500 31125,27500 31125,28375 31125,29250 32000,29250 32000,30125 32000,31000 30250,31000 29375,31000 28500,31000 27625,31000 26750,31000 25875,31000 25001,31000 24125,31000 23250,31000 22375,31000 21500,31000 20625,31000 19750,31000 18875,31000 18000,31000 18000,30125 18000,29250 18875,29250 18875,30125 19750,30125 Z M 18875,29250 L 18875,28375 18875,27500 19750,27500 19750,26625 20625,26625 21500,26625 22375,26625 23250,26625 24125,26625 25001,26625 25875,26625 26750,26625 27625,26625 28500,26625 29375,26625 30250,26625 30250,27500 29375,27500 29375,28375 28500,28375 28500,27500 27625,27500 27625,28375 26750,28375 26750,27500 25875,27500 25875,28375 25001,28375 25001,27500 24125,27500 24125,28375 23250,28375 23250,27500 22375,27500 22375,28375 21500,28375 21500,27500 20625,27500 20625,28375 19750,28375 19750,29250 18875,29250 Z M 20625,29250 L 20625,28375 21500,28375 21500,29250 20625,29250 Z M 22375,29250 L 22375,28375 23250,28375 23250,29250 22375,29250 Z M 24125,29250 L 24125,28375 25001,28375 25001,29250 24125,29250 Z M 25875,29250 L 25875,28375 26750,28375 26750,29250 25875,29250 Z M 27625,29250 L 27625,28375 28500,28375 28500,29250 27625,29250 Z"/>
       </g>
      </g>
     </g>
    </g>
   </g>
  </g>
 </g>
</svg>