<?xml version="1.0" encoding="UTF-8"?>
<!DOCTYPE svg PUBLIC "-//W3C//DTD SVG 1.1//EN" "http://www.w3.org/Graphics/SVG/1.1/DTD/svg11.dtd">
<svg version="1.2" width="160mm" height="160mm" viewBox="0 0 16000 16000" preserveAspectRatio="xMidYMid" fill-rule="evenodd" stroke-width="28.222" stroke-linejoin="round" xmlns="http://www.w3.org/2000/svg" xmlns:ooo="http://xml.openoffice.org/svg/export" xmlns:xlink="http://www.w3.org/1999/xlink" xmlns:presentation="http://sun.com/xmlns/staroffice/presentation" xmlns:smil="http://www.w3.org/2001/SMIL20/" xmlns:anim="urn:oasis:names:tc:opendocument:xmlns:animation:1.0" xml:space="preserve">
 <defs class="ClipPathGroup">
  <clipPath id="presentation_clip_path" clipPathUnits="userSpaceOnUse">
   <rect x="0" y="0" width="16000" height="16000"/>
  </clipPath>
  <clipPath id="presentation_clip_path_shrink" clipPathUnits="userSpaceOnUse">
   <rect x="16" y="16" width="15968" height="15968"/>
  </clipPath>
 </defs>
 <defs class="TextShapeIndex">
  <g ooo:slide="id1" ooo:id-list="id3"/>
 </defs>
 <defs class="EmbeddedBulletChars">
  <g id="bullet-char-template-57356" transform="scale(0.00048828125,-0.00048828125)">
   <path d="M 580,1141 L 1163,571 580,0 -4,571 580,1141 Z"/>
  </g>
  <g id="bullet-char-template-57354" transform="scale(0.00048828125,-0.00048828125)">
   <path d="M 8,1128 L 1137,1128 1137,0 8,0 8,1128 Z"/>
  </g>
  <g id="bullet-char-template-10146" transform="scale(0.00048828125,-0.00048828125)">
   <path d="M 174,0 L 602,739 174,1481 1456,739 174,0 Z M 1358,739 L 309,1346 659,739 1358,739 Z"/>
  </g>
  <g id="bullet-char-template-10132" transform="scale(0.00048828125,-0.00048828125)">
   <path d="M 2015,739 L 1276,0 717,0 1260,543 174,543 174,936 1260,936 717,1481 1274,1481 2015,739 Z"/>
  </g>
  <g id="bullet-char-template-10007" transform="scale(0.00048828125,-0.00048828125)">
   <path d="M 0,-2 C -7,14 -16,27 -25,37 L 356,567 C 262,823 215,952 215,954 215,979 228,992 255,992 264,992 276,990 289,987 310,991 331,999 354,1012 L 381,999 492,748 772,1049 836,1024 860,1049 C 881,1039 901,1025 922,1006 886,937 835,863 770,784 769,783 710,716 594,584 L 774,223 C 774,196 753,168 711,139 L 727,119 C 717,90 699,76 672,76 641,76 570,178 457,381 L 164,-76 C 142,-110 111,-127 72,-127 30,-127 9,-110 8,-76 1,-67 -2,-52 -2,-32 -2,-23 -1,-13 0,-2 Z"/>
  </g>
  <g id="bullet-char-template-10004" transform="scale(0.00048828125,-0.00048828125)">
   <path d="M 285,-33 C 182,-33 111,30 74,156 52,228 41,333 41,471 41,549 55,616 82,672 116,743 169,778 240,778 293,778 328,747 346,684 L 369,508 C 377,444 397,411 428,410 L 1163,1116 C 1174,1127 1196,1133 1229,1133 1271,1133 1292,1118 1292,1087 L 1292,965 C 1292,929 1282,901 1262,881 L 442,47 C 390,-6 338,-33 285,-33 Z"/>
  </g>
  <g id="bullet-char-template-9679" transform="scale(0.00048828125,-0.00048828125)">
   <path d="M 813,0 C 632,0 489,54 383,161 276,268 223,411 223,592 223,773 276,916 383,1023 489,1130 632,1184 813,1184 992,1184 1136,1130 1245,1023 1353,916 1407,772 1407,592 1407,412 1353,268 1245,161 1136,54 992,0 813,0 Z"/>
  </g>
  <g id="bullet-char-template-8226" transform="scale(0.00048828125,-0.00048828125)">
   <path d="M 346,457 C 273,457 209,483 155,535 101,586 74,649 74,723 74,796 101,859 155,911 209,963 273,989 346,989 419,989 480,963 531,910 582,859 608,796 608,723 608,648 583,586 532,535 482,483 420,457 346,457 Z"/>
  </g>
  <g id="bullet-char-template-8211" transform="scale(0.00048828125,-0.00048828125)">
   <path d="M -4,459 L 1135,459 1135,606 -4,606 -4,459 Z"/>
  </g>
  <g id="bullet-char-template-61548" transform="scale(0.00048828125,-0.00048828125)">
   <path d="M 173,740 C 173,903 231,1043 346,1159 462,1274 601,1332 765,1332 928,1332 1067,1274 1183,1159 1299,1043 1357,903 1357,740 1357,577 1299,437 1183,322 1067,206 928,148 765,148 601,148 462,206 346,322 231,437 173,577 173,740 Z"/>
  </g>
 </defs>
 <defs class="TextEmbeddedBitmaps"/>
 <g>
  <g id="id2" class="Master_Slide">
   <g id="bg-id2" class="Background"/>
   <g id="bo-id2" class="BackgroundObjects"/>
  </g>
 </g>
 <g class="SlideGroup">
  <g>
   <g id="container-id1">
    <g id="id1" class="Slide" clip-path="url(#presentation_clip_path)">
     <g class="Page">
      <g class="com.sun.star.drawing.PolyPolygonShape">
       <g id="id3">
        <rect class="BoundingBox" stroke="none" fill="none" x="0" y="0" width="16001" height="16001"/>
        <path fill="rgb(0,0,0)" stroke="none" d="M 6340,3435 L 6343,3378 6350,3324 6362,3273 6370,3248 6380,3223 6389,3199 6402,3175 6415,3153 6429,3131 6461,3088 6497,3047 6539,3010 6581,2978 6604,2964 6626,2952 6650,2939 6673,2929 6699,2920 6724,2912 6775,2899 6829,2893 6886,2890 6942,2893 6996,2899 7046,2912 7072,2920 7096,2929 7119,2939 7143,2950 7165,2964 7188,2977 7230,3010 7272,3047 7310,3088 7341,3131 7356,3153 7368,3175 7381,3199 7392,3223 7402,3248 7410,3272 7416,3299 7422,3324 7429,3378 7432,3435 7429,3492 7422,3546 7410,3599 7402,3624 7392,3648 7381,3671 7368,3695 7356,3719 7341,3741 7310,3784 7272,3825 7230,3863 7188,3895 7165,3909 7143,3922 7119,3933 7096,3944 7072,3954 7046,3962 6996,3974 6942,3981 6886,3984 6829,3981 6775,3974 6750,3968 6724,3962 6699,3952 6673,3944 6650,3933 6626,3920 6604,3908 6581,3893 6539,3860 6497,3822 6461,3781 6429,3738 6402,3692 6389,3668 6380,3644 6370,3621 6362,3595 6350,3545 6343,3491 6340,3435 Z M 8593,3435 L 8597,3378 8603,3324 8609,3299 8616,3272 8624,3248 8633,3223 8644,3199 8657,3175 8670,3153 8684,3131 8716,3088 8754,3047 8795,3010 8838,2977 8860,2964 8882,2950 8906,2939 8930,2929 8954,2920 8979,2912 9030,2899 9084,2893 9139,2890 9195,2893 9249,2899 9300,2912 9325,2920 9350,2929 9374,2939 9398,2950 9442,2977 9487,3010 9528,3047 9566,3088 9600,3131 9614,3153 9626,3175 9639,3199 9650,3223 9658,3248 9668,3272 9674,3299 9680,3324 9687,3378 9690,3435 9687,3491 9680,3545 9674,3570 9668,3595 9658,3621 9650,3644 9639,3668 9626,3692 9600,3738 9566,3781 9528,3822 9487,3860 9442,3893 9420,3908 9398,3920 9374,3933 9350,3944 9325,3952 9300,3962 9274,3968 9249,3974 9195,3981 9139,3984 9084,3981 9030,3974 9003,3968 8977,3962 8952,3952 8928,3944 8904,3933 8881,3920 8858,3908 8836,3893 8793,3860 8752,3822 8716,3781 8682,3738 8655,3692 8644,3668 8633,3644 8624,3621 8616,3595 8603,3545 8597,3491 8593,3435 Z M 4500,4507 L 4515,4150 4563,3806 4599,3640 4644,3476 4696,3316 4755,3159 4823,3005 4899,2856 4983,2709 5076,2566 5283,2289 5525,2025 5788,1784 6064,1577 6207,1485 6353,1401 6504,1325 6656,1256 6813,1196 6973,1144 7135,1099 7302,1063 7645,1015 8002,1000 8359,1015 8701,1063 8868,1099 9031,1144 9192,1196 9347,1256 9501,1325 9650,1401 9796,1485 9939,1577 10215,1784 10477,2025 10717,2289 10924,2566 11015,2709 11099,2856 11175,3005 11243,3159 11304,3316 11355,3476 11435,3806 11483,4150 11499,4507 11483,4862 11435,5205 11399,5371 11355,5533 11304,5693 11243,5850 11175,6002 11099,6152 11015,6297 10924,6440 10717,6716 10477,6978 10215,7217 9939,7425 9796,7515 9650,7599 9501,7675 9347,7744 9192,7804 9031,7855 8868,7899 8701,7935 8359,7983 8002,7999 7645,7983 7302,7935 7135,7899 6973,7855 6813,7804 6656,7744 6504,7675 6353,7599 6207,7515 6064,7425 5788,7217 5525,6978 5283,6716 5076,6440 4983,6297 4899,6152 4823,6002 4755,5850 4696,5693 4644,5533 4599,5371 4563,5205 4515,4862 4500,4507 Z M 5026,4507 L 5041,4808 5080,5100 5112,5241 5149,5379 5193,5514 5244,5647 5302,5777 5366,5904 5437,6028 5517,6148 5693,6383 5897,6605 6121,6808 6356,6984 6477,7062 6602,7133 6729,7198 6859,7255 6992,7306 7127,7350 7267,7388 7408,7419 7699,7458 8002,7472 8305,7458 8597,7419 8738,7388 8876,7350 9012,7306 9144,7255 9274,7198 9401,7133 9527,7062 9647,6984 9882,6808 10104,6605 10307,6383 10483,6148 10561,6028 10633,5904 10698,5777 10755,5647 10805,5514 10850,5379 10888,5241 10918,5100 10958,4808 10972,4507 10958,4204 10918,3911 10850,3630 10805,3495 10755,3362 10698,3231 10633,3104 10561,2978 10483,2858 10307,2622 10104,2398 9882,2194 9647,2016 9527,1938 9401,1867 9274,1802 9144,1743 9012,1692 8876,1648 8738,1612 8597,1580 8305,1540 8002,1526 7699,1540 7408,1580 7267,1612 7127,1648 6992,1692 6859,1743 6729,1802 6602,1867 6477,1938 6356,2016 6121,2194 5897,2398 5693,2622 5517,2858 5437,2978 5366,3104 5302,3231 5244,3362 5193,3495 5149,3630 5112,3770 5080,3911 5041,4204 5026,4507 Z M 5947,5601 L 6394,5325 6451,5408 6515,5489 6585,5566 6659,5644 6802,5774 6951,5887 7029,5936 7108,5982 7189,6023 7272,6060 7357,6091 7443,6120 7532,6144 7622,6163 7808,6190 8002,6198 8195,6190 8381,6163 8471,6144 8559,6120 8646,6091 8730,6060 8812,6023 8895,5982 8973,5936 9050,5887 9200,5774 9342,5644 9415,5566 9485,5487 9549,5405 9607,5321 10057,5601 9980,5709 9899,5815 9811,5918 9717,6018 9534,6183 9344,6328 9244,6391 9143,6448 9039,6500 8933,6548 8825,6589 8714,6626 8486,6680 8248,6713 8002,6724 7754,6713 7518,6680 7289,6626 7178,6589 7070,6548 6964,6500 6859,6448 6758,6391 6659,6328 6467,6183 6285,6018 6189,5918 6102,5815 6021,5709 5947,5601 Z M 1000,8000 L 1000,8001 6000,8001 10000,8001 15000,8001 15000,8000 15000,1000 1000,1000 1000,8000 Z M 0,0 L 1000,0 15000,0 16000,0 16000,1000 16000,8001 16000,8999 15000,8999 10000,8999 10000,10000 6000,10000 6000,8999 1000,8999 0,8999 0,8001 0,1000 0,0 Z M 2000,15000 L 2000,14000 3000,14000 3000,15000 4000,15000 4000,14000 5000,14000 5000,15000 6000,15000 6000,14000 7001,14000 7001,15000 8001,15000 8001,14000 8999,14000 8999,15000 10000,15000 10000,14000 11000,14000 11000,15000 12000,15000 12000,14000 13000,14000 13000,15000 14000,15000 14000,14000 13000,14000 13000,13000 14000,13000 14000,12000 15000,12000 15000,13000 15000,14000 16000,14000 16000,15000 16000,16000 14000,16000 13000,16000 12000,16000 11000,16000 10000,16000 8999,16000 8001,16000 7001,16000 6000,16000 5000,16000 4000,16000 3000,16000 2000,16000 1000,16000 0,16000 0,15000 0,14000 1000,14000 1000,15000 2000,15000 Z M 1000,14000 L 1000,13000 1000,12000 2000,12000 2000,11000 3000,11000 4000,11000 5000,11000 6000,11000 7001,11000 8001,11000 8999,11000 10000,11000 11000,11000 12000,11000 13000,11000 14000,11000 14000,12000 13000,12000 13000,13000 12000,13000 12000,12000 11000,12000 11000,13000 10000,13000 10000,12000 8999,12000 8999,13000 8001,13000 8001,12000 7001,12000 7001,13000 6000,13000 6000,12000 5000,12000 5000,13000 4000,13000 4000,12000 3000,12000 3000,13000 2000,13000 2000,14000 1000,14000 Z M 3000,14000 L 3000,13000 4000,13000 4000,14000 3000,14000 Z M 5000,14000 L 5000,13000 6000,13000 6000,14000 5000,14000 Z M 7001,14000 L 7001,13000 8001,13000 8001,14000 7001,14000 Z M 8999,14000 L 8999,13000 10000,13000 10000,14000 8999,14000 Z M 11000,14000 L 11000,13000 12000,13000 12000,14000 11000,14000 Z"/>
       </g>
      </g>
     </g>
    </g>
   </g>
  </g>
 </g>
</svg>