<?xml version="1.0" encoding="UTF-8"?>
<!DOCTYPE svg PUBLIC "-//W3C//DTD SVG 1.1//EN" "http://www.w3.org/Graphics/SVG/1.1/DTD/svg11.dtd">
<svg version="1.2" width="500mm" height="190.8mm" viewBox="0 0 50000 19080" preserveAspectRatio="xMidYMid" fill-rule="evenodd" stroke-width="28.222" stroke-linejoin="round" xmlns="http://www.w3.org/2000/svg" xmlns:ooo="http://xml.openoffice.org/svg/export" xmlns:xlink="http://www.w3.org/1999/xlink" xmlns:presentation="http://sun.com/xmlns/staroffice/presentation" xmlns:smil="http://www.w3.org/2001/SMIL20/" xmlns:anim="urn:oasis:names:tc:opendocument:xmlns:animation:1.0" xml:space="preserve">
 <defs class="ClipPathGroup">
  <clipPath id="presentation_clip_path" clipPathUnits="userSpaceOnUse">
   <rect x="0" y="0" width="50000" height="19080"/>
  </clipPath>
  <clipPath id="presentation_clip_path_shrink" clipPathUnits="userSpaceOnUse">
   <rect x="50" y="19" width="49900" height="19042"/>
  </clipPath>
 </defs>
 <defs class="TextShapeIndex">
  <g ooo:slide="id1" ooo:id-list="id3 id4 id5 id6"/>
 </defs>
 <defs class="EmbeddedBulletChars">
  <g id="bullet-char-template-57356" transform="scale(0.00048828125,-0.00048828125)">
   <path d="M 580,1141 L 1163,571 580,0 -4,571 580,1141 Z"/>
  </g>
  <g id="bullet-char-template-57354" transform="scale(0.00048828125,-0.00048828125)">
   <path d="M 8,1128 L 1137,1128 1137,0 8,0 8,1128 Z"/>
  </g>
  <g id="bullet-char-template-10146" transform="scale(0.00048828125,-0.00048828125)">
   <path d="M 174,0 L 602,739 174,1481 1456,739 174,0 Z M 1358,739 L 309,1346 659,739 1358,739 Z"/>
  </g>
  <g id="bullet-char-template-10132" transform="scale(0.00048828125,-0.00048828125)">
   <path d="M 2015,739 L 1276,0 717,0 1260,543 174,543 174,936 1260,936 717,1481 1274,1481 2015,739 Z"/>
  </g>
  <g id="bullet-char-template-10007" transform="scale(0.00048828125,-0.00048828125)">
   <path d="M 0,-2 C -7,14 -16,27 -25,37 L 356,567 C 262,823 215,952 215,954 215,979 228,992 255,992 264,992 276,990 289,987 310,991 331,999 354,1012 L 381,999 492,748 772,1049 836,1024 860,1049 C 881,1039 901,1025 922,1006 886,937 835,863 770,784 769,783 710,716 594,584 L 774,223 C 774,196 753,168 711,139 L 727,119 C 717,90 699,76 672,76 641,76 570,178 457,381 L 164,-76 C 142,-110 111,-127 72,-127 30,-127 9,-110 8,-76 1,-67 -2,-52 -2,-32 -2,-23 -1,-13 0,-2 Z"/>
  </g>
  <g id="bullet-char-template-10004" transform="scale(0.00048828125,-0.00048828125)">
   <path d="M 285,-33 C 182,-33 111,30 74,156 52,228 41,333 41,471 41,549 55,616 82,672 116,743 169,778 240,778 293,778 328,747 346,684 L 369,508 C 377,444 397,411 428,410 L 1163,1116 C 1174,1127 1196,1133 1229,1133 1271,1133 1292,1118 1292,1087 L 1292,965 C 1292,929 1282,901 1262,881 L 442,47 C 390,-6 338,-33 285,-33 Z"/>
  </g>
  <g id="bullet-char-template-9679" transform="scale(0.00048828125,-0.00048828125)">
   <path d="M 813,0 C 632,0 489,54 383,161 276,268 223,411 223,592 223,773 276,916 383,1023 489,1130 632,1184 813,1184 992,1184 1136,1130 1245,1023 1353,916 1407,772 1407,592 1407,412 1353,268 1245,161 1136,54 992,0 813,0 Z"/>
  </g>
  <g id="bullet-char-template-8226" transform="scale(0.00048828125,-0.00048828125)">
   <path d="M 346,457 C 273,457 209,483 155,535 101,586 74,649 74,723 74,796 101,859 155,911 209,963 273,989 346,989 419,989 480,963 531,910 582,859 608,796 608,723 608,648 583,586 532,535 482,483 420,457 346,457 Z"/>
  </g>
  <g id="bullet-char-template-8211" transform="scale(0.00048828125,-0.00048828125)">
   <path d="M -4,459 L 1135,459 1135,606 -4,606 -4,459 Z"/>
  </g>
  <g id="bullet-char-template-61548" transform="scale(0.00048828125,-0.00048828125)">
   <path d="M 173,740 C 173,903 231,1043 346,1159 462,1274 601,1332 765,1332 928,1332 1067,1274 1183,1159 1299,1043 1357,903 1357,740 1357,577 1299,437 1183,322 1067,206 928,148 765,148 601,148 462,206 346,322 231,437 173,577 173,740 Z"/>
  </g>
 </defs>
 <defs class="TextEmbeddedBitmaps"/>
 <g>
  <g id="id2" class="Master_Slide">
   <g id="bg-id2" class="Background"/>
   <g id="bo-id2" class="BackgroundObjects"/>
  </g>
 </g>
 <g class="SlideGroup">
  <g>
   <g id="container-id1">
    <g id="id1" class="Slide" clip-path="url(#presentation_clip_path)">
     <g class="Page">
      <g class="com.sun.star.drawing.CustomShape">
       <g id="id3">
        <rect class="BoundingBox" stroke="none" fill="none" x="0" y="0" width="50001" height="19081"/>
        <path fill="rgb(75,75,75)" stroke="none" d="M 25000,19080 L 0,19080 0,0 50000,0 50000,19080 25000,19080 Z"/>
       </g>
      </g>
      <g class="com.sun.star.drawing.LineShape">
       <g id="id4">
        <rect class="BoundingBox" stroke="none" fill="none" x="1313" y="5632" width="46611" height="531"/>
        <path fill="none" stroke="rgb(0,0,0)" stroke-width="529" stroke-linejoin="round" d="M 1578,5897 L 47658,5897"/>
       </g>
      </g>
      <g class="com.sun.star.drawing.CustomShape">
       <g id="id5">
        <rect class="BoundingBox" stroke="none" fill="none" x="1162" y="459" width="47211" height="4728"/>
        <path fill="rgb(0,160,255)" stroke="none" d="M 1162,541 L 2322,541 3789,3641 5265,541 6425,541 6425,5097 5665,5097 5665,1096 4182,4221 3400,4221 1917,1096 1917,5097 1162,5097 1162,541 Z M 12986,540 L 16292,540 16292,1059 13765,1059 13765,2402 16045,2402 16045,2921 13765,2921 13765,5097 12986,5097 12986,540 Z M 18722,1148 L 17667,3416 19782,3416 18722,1148 Z M 18284,541 L 19166,541 21358,5097 20549,5097 20025,3928 17432,3928 16908,5097 16088,5097 18284,541 Z M 25646,691 L 25646,1292 25427,1213 25215,1145 25009,1088 24810,1041 24615,1005 24519,991 24424,980 24329,970 24236,964 24142,961 24051,959 23896,962 23751,971 23615,986 23488,1007 23370,1035 23261,1069 23161,1108 23114,1131 23071,1154 23029,1179 22990,1206 22954,1233 22920,1262 22888,1293 22861,1324 22835,1356 22812,1391 22792,1427 22775,1463 22759,1501 22747,1540 22738,1580 22731,1622 22727,1665 22726,1709 22730,1783 22740,1851 22758,1915 22769,1946 22783,1975 22798,2003 22815,2029 22834,2055 22855,2079 22877,2103 22901,2125 22927,2145 22955,2166 22985,2185 23019,2203 23095,2239 23185,2273 23286,2305 23401,2336 23530,2364 23670,2390 23824,2415 24294,2491 24504,2527 24701,2569 24882,2618 25050,2672 25204,2733 25343,2800 25467,2873 25524,2913 25578,2953 25628,2995 25676,3039 25719,3085 25759,3133 25797,3182 25830,3233 25861,3286 25889,3341 25934,3454 25967,3576 25986,3704 25992,3840 25983,4000 25958,4151 25937,4223 25914,4291 25885,4358 25853,4422 25815,4484 25773,4543 25728,4599 25677,4653 25623,4705 25563,4754 25500,4800 25431,4844 25359,4885 25283,4924 25204,4960 25119,4994 24938,5053 24741,5100 24527,5137 24298,5165 24052,5180 23789,5186 23581,5181 23368,5167 23147,5145 22920,5112 22688,5071 22451,5022 22211,4963 21967,4896 21967,4261 22202,4360 22436,4446 22666,4518 22895,4579 23009,4604 23122,4626 23233,4643 23345,4659 23457,4670 23568,4679 23679,4684 23789,4685 23951,4682 24104,4672 24246,4656 24379,4634 24503,4605 24617,4569 24722,4526 24771,4503 24818,4478 24862,4451 24902,4423 24941,4394 24977,4364 25009,4331 25039,4297 25065,4263 25090,4226 25110,4189 25128,4149 25145,4109 25157,4067 25167,4023 25173,3979 25179,3886 25175,3804 25163,3727 25142,3654 25129,3620 25114,3587 25097,3554 25077,3523 25056,3493 25034,3465 25008,3437 24981,3411 24951,3385 24920,3361 24886,3338 24849,3315 24769,3272 24677,3232 24577,3196 24465,3161 24342,3130 24209,3102 24066,3077 23593,3004 23382,2967 23187,2926 23007,2879 22842,2827 22692,2771 22557,2710 22438,2644 22383,2610 22333,2573 22286,2536 22241,2497 22201,2456 22163,2413 22127,2368 22096,2322 22066,2274 22041,2224 22017,2171 21998,2118 21968,2005 21949,1886 21943,1759 21951,1611 21962,1541 21977,1472 21996,1406 22018,1341 22046,1279 22077,1219 22113,1160 22153,1103 22198,1049 22245,997 22298,946 22354,898 22415,851 22480,807 22550,765 22621,725 22696,688 22775,654 22940,595 23119,546 23312,508 23515,480 23732,464 23962,459 24166,463 24370,473 24578,492 24786,517 24998,550 25212,589 25427,637 25646,691 Z M 29541,959 L 29334,967 29235,977 29139,990 29045,1008 28953,1029 28866,1055 28780,1084 28697,1117 28618,1155 28540,1196 28466,1240 28394,1289 28325,1342 28258,1399 28194,1460 28134,1523 28077,1590 27976,1733 27890,1886 27820,2051 27766,2227 27727,2415 27704,2613 27696,2823 27704,3033 27727,3231 27766,3418 27820,3594 27890,3758 27976,3912 28077,4054 28134,4121 28194,4185 28258,4245 28325,4302 28394,4355 28466,4404 28540,4448 28618,4489 28697,4527 28780,4560 28866,4589 28953,4615 29045,4636 29139,4654 29235,4667 29334,4677 29541,4685 29747,4677 29846,4667 29943,4654 30036,4636 30127,4615 30215,4589 30301,4560 30383,4527 30463,4489 30540,4448 30614,4404 30685,4355 30755,4302 30821,4245 30884,4185 30944,4121 31000,4054 31101,3912 31185,3758 31255,3594 31309,3418 31348,3231 31370,3033 31378,2823 31370,2613 31348,2415 31309,2227 31255,2051 31185,1886 31101,1733 31000,1590 30944,1523 30884,1460 30821,1399 30755,1342 30685,1289 30614,1240 30540,1196 30463,1155 30383,1117 30301,1084 30215,1055 30127,1029 30036,1008 29943,990 29846,977 29747,967 29541,959 Z M 29541,459 L 29836,468 30116,499 30250,521 30380,549 30506,582 30629,619 30749,662 30863,709 30975,762 31083,820 31187,882 31287,950 31382,1024 31475,1101 31563,1183 31645,1269 31721,1357 31793,1449 31858,1545 31917,1644 32018,1853 32098,2075 32155,2311 32188,2561 32200,2823 32188,3086 32154,3335 32098,3570 32018,3792 31917,4000 31857,4099 31792,4195 31721,4287 31645,4376 31563,4461 31475,4543 31382,4621 31287,4694 31186,4762 31082,4825 30975,4882 30863,4935 30749,4983 30629,5025 30506,5062 30380,5095 30250,5123 30116,5145 29836,5176 29541,5186 29244,5176 28965,5145 28830,5123 28699,5095 28572,5063 28449,5025 28330,4983 28215,4935 28103,4883 27995,4825 27891,4763 27790,4695 27694,4622 27601,4545 27514,4463 27431,4378 27354,4289 27284,4197 27217,4102 27158,4002 27057,3795 26976,3572 26920,3336 26886,3087 26874,2823 26886,2561 26920,2311 26976,2075 27057,1853 27158,1644 27217,1545 27284,1449 27354,1357 27431,1269 27514,1183 27601,1101 27694,1024 27790,950 27891,882 27995,820 28103,762 28215,709 28330,662 28449,619 28572,582 28699,549 28830,521 28965,499 29244,468 29541,459 Z M 33417,541 L 34465,541 37015,4352 37015,541 37770,541 37770,5097 36723,5097 34172,1285 34172,5097 33417,5097 33417,541 Z M 39319,541 L 42956,541 42956,1060 40097,1060 40097,2408 42837,2408 42837,2927 40097,2927 40097,4578 43025,4578 43025,5097 39319,5097 39319,541 Z M 43506,541 L 48372,541 48372,1060 46331,1060 46331,5098 45549,5098 45549,1060 43506,1060 43506,541 Z"/>
       </g>
      </g>
      <g class="com.sun.star.drawing.PolyPolygonShape">
       <g id="id6">
        <rect class="BoundingBox" stroke="none" fill="none" x="115" y="0" width="19082" height="19081"/>
        <path fill="rgb(0,160,255)" stroke="none" d="M 4694,15645 L 5076,15645 5076,16027 5458,16027 5458,16790 4694,16790 4694,17172 3550,17172 3550,17553 3168,17553 3168,18698 3168,19080 3168,19080 115,19080 9655,0 19195,19080 16142,19080 16142,19080 16142,18698 16142,17553 15761,17553 15761,17172 14616,17172 14616,16790 13853,16790 13853,16027 14234,16027 14234,15645 14616,15645 14616,13356 14234,13356 14234,12974 11945,12974 11945,13356 11563,13356 11563,15645 11945,15645 11945,16027 12326,16027 12326,16790 11563,16790 11563,17172 10418,17172 10418,17553 10037,17553 10037,18698 10037,19080 10037,19080 9274,19080 9274,19080 9274,18698 9274,17553 8892,17553 8892,17172 7747,17172 7747,16790 6984,16790 6984,16027 7366,16027 7366,15645 7747,15645 7747,13356 7366,13356 7366,12974 5076,12974 5076,13356 4694,13356 4694,15645 Z M 9101,7634 L 9102,7653 9104,7671 9108,7688 9111,7696 9114,7704 9117,7712 9122,7720 9130,7735 9141,7749 9153,7763 9167,7776 9181,7787 9189,7792 9196,7796 9204,7800 9212,7804 9221,7807 9229,7810 9238,7812 9246,7814 9264,7816 9283,7817 9302,7816 9320,7814 9337,7810 9345,7807 9353,7804 9361,7800 9369,7797 9376,7792 9384,7788 9398,7777 9412,7764 9425,7751 9435,7736 9440,7729 9444,7721 9448,7713 9452,7705 9456,7697 9458,7689 9462,7671 9464,7653 9465,7634 9464,7615 9462,7597 9460,7589 9458,7580 9456,7572 9452,7563 9448,7555 9444,7547 9440,7540 9435,7533 9425,7518 9412,7504 9398,7492 9384,7481 9376,7477 9369,7472 9361,7469 9353,7465 9345,7462 9337,7459 9320,7455 9302,7453 9283,7452 9264,7453 9246,7455 9229,7459 9221,7462 9212,7465 9204,7469 9196,7473 9189,7477 9181,7481 9167,7492 9153,7504 9141,7518 9130,7533 9126,7540 9122,7547 9117,7555 9114,7563 9111,7572 9108,7580 9104,7597 9102,7615 9101,7634 Z M 9853,7634 L 9854,7653 9857,7671 9861,7688 9863,7696 9867,7704 9870,7712 9874,7720 9883,7735 9894,7749 9906,7763 9920,7776 9934,7787 9942,7792 9949,7796 9957,7800 9965,7804 9973,7807 9981,7810 9990,7812 9999,7814 10017,7816 10036,7817 10054,7816 10072,7814 10081,7812 10089,7810 10097,7807 10106,7804 10114,7800 10122,7796 10129,7792 10137,7787 10152,7776 10165,7763 10178,7749 10189,7735 10198,7720 10202,7712 10206,7704 10209,7696 10212,7688 10214,7679 10216,7671 10218,7653 10220,7634 10218,7615 10216,7597 10214,7589 10212,7580 10209,7572 10206,7563 10202,7555 10198,7547 10194,7540 10189,7533 10178,7518 10165,7504 10152,7492 10137,7481 10122,7472 10114,7469 10106,7465 10097,7462 10089,7459 10072,7455 10054,7453 10036,7452 10017,7453 9999,7455 9982,7459 9974,7462 9966,7465 9958,7469 9950,7472 9942,7477 9935,7481 9921,7492 9907,7504 9894,7518 9884,7533 9879,7540 9875,7547 9870,7555 9867,7563 9863,7572 9861,7580 9859,7589 9857,7597 9854,7615 9853,7634 Z M 8487,7992 L 8492,8110 8508,8225 8520,8281 8535,8334 8552,8388 8572,8440 8594,8491 8620,8541 8648,8590 8679,8637 8748,8730 8829,8817 8917,8897 9009,8966 9056,8996 9105,9024 9156,9050 9206,9073 9259,9093 9312,9110 9366,9125 9422,9136 9536,9152 9656,9158 9775,9152 9889,9136 9945,9125 9999,9110 10053,9093 10105,9073 10156,9050 10206,9024 10255,8996 10303,8966 10395,8897 10482,8817 10562,8730 10632,8637 10662,8590 10690,8541 10715,8491 10738,8440 10758,8388 10775,8334 10790,8281 10802,8225 10818,8110 10824,7992 10818,7873 10802,7758 10775,7648 10758,7594 10738,7542 10715,7490 10690,7441 10662,7391 10632,7344 10562,7251 10482,7163 10395,7083 10303,7014 10255,6983 10206,6955 10156,6929 10105,6906 10053,6887 9999,6869 9945,6854 9889,6842 9775,6826 9656,6821 9536,6826 9422,6842 9366,6854 9312,6869 9259,6887 9206,6906 9156,6929 9105,6955 9056,6983 9009,7014 8917,7083 8829,7163 8748,7251 8679,7344 8648,7391 8620,7441 8594,7490 8572,7542 8552,7594 8535,7648 8520,7702 8508,7758 8492,7873 8487,7992 Z M 8662,7992 L 8667,7891 8680,7793 8691,7746 8703,7699 8718,7654 8735,7610 8754,7566 8776,7523 8799,7481 8826,7441 8885,7362 8953,7288 9028,7220 9106,7160 9146,7134 9188,7111 9231,7089 9274,7069 9319,7052 9364,7037 9411,7025 9457,7015 9555,7001 9656,6996 9757,7001 9854,7015 9902,7025 9948,7037 9993,7052 10037,7069 10081,7089 10123,7111 10165,7134 10205,7160 10284,7220 10358,7288 10426,7362 10484,7441 10510,7481 10534,7523 10556,7566 10575,7610 10592,7654 10607,7699 10629,7793 10643,7891 10648,7992 10643,8092 10629,8190 10619,8237 10607,8283 10592,8328 10575,8373 10556,8416 10534,8458 10510,8500 10484,8540 10426,8618 10358,8692 10284,8760 10205,8819 10165,8845 10123,8869 10081,8890 10037,8909 9993,8927 9948,8941 9902,8954 9854,8964 9757,8977 9656,8982 9555,8977 9457,8964 9411,8954 9364,8941 9319,8927 9274,8909 9231,8890 9188,8869 9146,8845 9106,8819 9028,8760 8953,8692 8885,8618 8826,8540 8799,8500 8776,8458 8754,8416 8735,8373 8718,8328 8703,8283 8691,8237 8680,8190 8667,8092 8662,7992 Z M 8970,8357 L 8994,8393 9021,8429 9050,8463 9082,8497 9143,8551 9208,8600 9240,8621 9274,8640 9309,8658 9345,8674 9381,8687 9418,8700 9494,8717 9573,8729 9656,8732 9738,8729 9817,8717 9894,8700 9931,8687 9967,8674 10002,8658 10037,8640 10071,8621 10104,8600 10167,8551 10228,8497 10260,8463 10289,8429 10316,8393 10342,8357 10192,8264 10172,8292 10151,8319 10128,8345 10103,8372 10056,8415 10006,8453 9980,8469 9954,8484 9926,8498 9899,8511 9871,8521 9842,8530 9812,8539 9782,8545 9720,8554 9656,8556 9591,8554 9529,8545 9499,8539 9469,8530 9440,8521 9412,8511 9384,8498 9357,8484 9331,8469 9305,8453 9255,8415 9208,8372 9183,8345 9159,8320 9138,8293 9119,8265 8970,8357 Z M 7318,9158 L 7318,6821 9656,6821 11992,6821 11992,9158 11992,9159 10323,9159 8987,9159 7318,9159 7318,9158 Z M 6984,6487 L 6984,6821 6984,9159 6984,9492 7318,9492 8987,9492 8987,9826 10323,9826 10323,9492 11992,9492 12326,9492 12326,9159 12326,6821 12326,6487 11992,6487 7318,6487 6984,6487 Z M 7652,11495 L 7318,11495 7318,11162 6984,11162 6984,11495 6984,11829 7318,11829 7652,11829 7986,11829 8320,11829 8653,11829 8987,11829 9321,11829 9656,11829 9989,11829 10323,11829 10657,11829 10991,11829 11325,11829 11658,11829 12326,11829 12326,11495 12326,11162 11992,11162 11992,10828 11992,10494 11658,10494 11658,10828 11325,10828 11325,11162 11658,11162 11658,11495 11325,11495 11325,11162 10991,11162 10991,11495 10657,11495 10657,11162 10323,11162 10323,11495 9989,11495 9989,11162 9656,11162 9656,11495 9321,11495 9321,11162 8987,11162 8987,11495 8653,11495 8653,11162 8320,11162 8320,11495 7986,11495 7986,11162 7652,11162 7652,11495 Z M 7318,11162 L 7652,11162 7652,10828 7986,10828 7986,10494 8320,10494 8320,10828 8653,10828 8653,10494 8987,10494 8987,10828 9321,10828 9321,10494 9656,10494 9656,10828 9989,10828 9989,10494 10323,10494 10323,10828 10657,10828 10657,10494 10991,10494 10991,10828 11325,10828 11325,10494 11658,10494 11658,10160 11325,10160 10991,10160 10657,10160 10323,10160 9989,10160 9656,10160 9321,10160 8987,10160 8653,10160 8320,10160 7986,10160 7652,10160 7652,10494 7318,10494 7318,10828 7318,11162 Z M 7986,11162 L 8320,11162 8320,10828 7986,10828 7986,11162 Z M 8653,11162 L 8987,11162 8987,10828 8653,10828 8653,11162 Z M 9321,11162 L 9656,11162 9656,10828 9321,10828 9321,11162 Z M 9989,11162 L 10323,11162 10323,10828 9989,10828 9989,11162 Z M 10657,11162 L 10991,11162 10991,10828 10657,10828 10657,11162 Z"/>
       </g>
      </g>
     </g>
    </g>
   </g>
  </g>
 </g>
</svg>